# xmcd CD database file generated by OrangeCD 6.5
#
# Track frame offsets:
#	150
#	18670
#	44475
#	62402
#	77800
#	95542
#	123935
#	146762
#	161537
#	183812
#	201575
#	222067
#
# Disc length: 3246 seconds
#
# Revision: 3
# Processed by: cddbd v1.5.2PL0 Copyright (c) Steve Scherf et al.
# Submitted via: OrangeCD 6.5
#
DISCID=a70cac0c
DTITLE=Marcia Ball - Blue House
DYEAR=1994
DGENRE=Blues
TTITLE0=Red Beans
TTITLE1=The Facts of Life
TTITLE2=Down the Road
TTITLE3=Blue House
TTITLE4=Big Shot
TTITLE5=St. Gabriel
TTITLE6=That's What I Get
TTITLE7=Fingernails
TTITLE8=Why Do I
TTITLE9=If This Is Love
TTITLE10=Sparkle Paradise
TTITLE11=One of a Kind
EXTD=
EXTT0=
EXTT1=
EXTT2=
EXTT3=
EXTT4=
EXTT5=
EXTT6=
EXTT7=
EXTT8=
EXTT9=
EXTT10=
EXTT11=
PLAYORDER=
